<svg xmlns="http://www.w3.org/2000/svg" viewBox="0.0 0.0 348.0 348.0" fill="none">
    <path d="M5.079 5.776h336.913v337.67H5.08z" stroke-width="2" stroke="#000"/>
    <path d="M282.734 40.554c0-8.376 6.966-15.165 15.56-15.165 4.126 0 8.084 1.597 11.001 4.441 2.918 2.844 4.558 6.702 4.558 10.724 0 8.376-6.966 15.165-15.56 15.165-8.593 0-15.559-6.79-15.559-15.165z" stroke-width="2" stroke="#000"/>
   <circle cx="50" cy="174" r="30" stroke="black" stroke-width="2" fill="none" />
   <circle cx="132" cy="174" r="30" stroke="black" stroke-width="2" fill="none" />
   <circle cx="214" cy="174" r="30" stroke="black" stroke-width="2" fill="none" />
   <circle cx="298" cy="174" r="30" stroke="black" stroke-width="2" fill="none" />
   <rect x="30"  y="224" width="40" height="70" style="fill:none;stroke-width:2;stroke:black" />
   <rect x="112" y="224" width="40" height="70" style="fill:none;stroke-width:2;stroke:black" />
   <rect x="194" y="224" width="40" height="70" style="fill:none;stroke-width:2;stroke:black" />
   <rect x="278" y="224" width="40" height="70" style="fill:none;stroke-width:2;stroke:black" />
   <rect x="20"  y="214" width="60" height="90" style="fill:none;stroke-width:2;stroke:black" />
   <rect x="102" y="214" width="60" height="90" style="fill:none;stroke-width:2;stroke:black" />
   <rect x="184" y="214" width="60" height="90" style="fill:none;stroke-width:2;stroke:black" />
   <rect x="268" y="214" width="60" height="90" style="fill:none;stroke-width:2;stroke:black" />
   <text x="50" y="265" fill="black" font-size="55" dominant-baseline="middle" text-anchor="middle">#</text>
   <text x="132" y="265" fill="black" font-size="55" dominant-baseline="middle" text-anchor="middle">#</text>
   <text x="214" y="265" fill="black" font-size="55" dominant-baseline="middle" text-anchor="middle">#</text>
   <text x="298" y="265" fill="black" font-size="55" dominant-baseline="middle" text-anchor="middle">#</text>
   Sorry, your browser does not support inline SVG.
</svg> 
